# xmcd
#
# Track frame offsets: 
#        150
#        20111
#        36915
#        59789
#        78326
#        96507
#        116531
#        130034
#        141931
#        170093
#        194715
#
# Disc length: 2845 seconds
#
# Revision: 2
# Processed by: cddbd v1.4PL0 Copyright (c) Steve Scherf et al.
# Submitted via: ExactAudioCopy v0.90b4
#
DISCID=a90b1b0b
DTITLE=Echotown - Echotown
DYEAR=2001
DGENRE=Country
TTITLE0=Been So Long
TTITLE1=Echotown
TTITLE2=34 Winters
TTITLE3=A Dinner With Richard Petty
TTITLE4=Sacred And Sin
TTITLE5=Little Things
TTITLE6=I Liked You Better
TTITLE7=If You Have To Ask
TTITLE8=Ore Hill
TTITLE9=Joshua (US 93)
TTITLE10=Steal
EXTD=
EXTT0=
EXTT1=
EXTT2=
EXTT3=
EXTT4=
EXTT5=
EXTT6=
EXTT7=
EXTT8=
EXTT9=
EXTT10=
PLAYORDER=
